<svg version="1.1" id="Layer_1" xmlns="http://www.w3.org/2000/svg" xmlns:xlink="http://www.w3.org/1999/xlink" x="0px" y="0px"
	 width="100%" viewBox="0 0 3300 5100" enable-background="new 0 0 3300 5100" xml:space="preserve">
<path fill="#193B59" opacity="1.000000" stroke="none" 
	d="
M3304.000000,1984.000000 
	C3304.000000,3025.333252 3304.000000,4064.666748 3304.000000,5104.000000 
	C2204.000000,5104.000000 1104.000000,5104.000000 4.000000,5104.000000 
	C4.000000,3404.000000 4.000000,1704.000000 4.000000,4.000001 
	C1104.000000,4.000000 2204.000000,4.000000 3304.000000,4.000000 
	C3304.000000,663.333313 3304.000000,1322.666626 3304.000000,1984.000000 
M1680.201782,1686.418091 
	C1681.476929,1687.091431 1682.752197,1687.764771 1687.679443,1689.344604 
	C1695.009888,1689.437500 1702.340332,1689.611206 1709.670776,1689.611450 
	C2218.945312,1689.624146 2728.219727,1689.623169 3237.494385,1689.621338 
	C3242.827148,1689.621338 3248.178711,1689.866821 3253.486084,1689.493652 
	C3257.241455,1689.229492 3260.936523,1688.113159 3265.838623,1687.144165 
	C3265.838623,1677.057983 3265.838379,1667.796997 3265.838379,1658.536011 
	C3265.838379,1131.930176 3265.839111,605.324280 3265.836670,78.718422 
	C3265.836670,72.719223 3266.032471,66.707542 3265.704590,60.725353 
	C3265.500244,56.996704 3264.482178,53.312637 3263.864502,49.807266 
	C3260.542725,49.171688 3258.636475,48.486942 3256.729980,48.487263 
	C2732.800537,48.575432 2208.871338,48.710896 1684.941895,48.869560 
	C1684.326538,48.869747 1683.656860,49.139759 1683.110840,49.454491 
	C1682.545288,49.780373 1682.099976,50.314709 1680.127441,52.070103 
	C1679.991821,58.541637 1679.683228,66.399269 1679.682861,74.256920 
	C1679.660278,603.529175 1679.659302,1132.801392 1679.695557,1662.073608 
	C1679.696045,1669.386841 1680.194580,1676.700073 1680.201782,1686.418091 
M1636.651367,2337.123779 
	C1636.740845,2329.125977 1636.908691,2321.128174 1636.908813,2313.130371 
	C1636.920776,1568.524658 1636.920410,823.918884 1636.915649,79.313148 
	C1636.915649,73.314087 1637.135498,67.294106 1636.703491,61.323620 
	C1636.432007,57.569847 1635.134033,53.890331 1634.050781,49.088120 
	C1623.946777,48.827061 1614.730957,48.381195 1605.515015,48.380585 
	C1098.223145,48.347061 590.931335,48.350597 83.639481,48.353695 
	C77.640144,48.353733 71.631516,48.202858 65.644829,48.489784 
	C61.807713,48.673687 58.002956,49.532913 53.786125,50.147335 
	C50.486885,60.729267 51.736805,70.740578 51.736095,80.564651 
	C51.677814,887.831970 51.682228,1695.099365 51.685654,2502.366699 
	C51.685684,2509.032471 51.532913,2515.707764 51.839169,2522.360596 
	C52.014473,2526.168945 52.973545,2529.940674 53.600758,2533.860107 
	C63.007607,2537.145508 71.709457,2536.007568 80.226418,2536.008545 
	C589.518066,2536.062256 1098.809814,2536.059814 1608.101440,2536.028564 
	C1616.090820,2536.028076 1624.080322,2535.602295 1634.051270,2535.187500 
	C1635.419312,2534.560303 1636.096191,2533.494141 1636.636353,2528.274170 
	C1636.724487,2481.280762 1636.840576,2434.287109 1636.856567,2387.293701 
	C1636.858032,2382.682373 1636.244751,2378.070801 1637.535278,2371.795410 
	C1640.812988,2368.954346 1644.090698,2366.113281 1647.631592,2363.044189 
	C1643.514771,2355.287842 1639.703979,2348.107910 1636.651367,2337.123779 
M122.004852,2578.826416 
	C110.673958,2578.826660 99.334801,2578.555908 88.014465,2578.901611 
	C76.324860,2579.258545 64.374489,2577.186768 51.663017,2580.929688 
	C51.663017,2591.256104 51.663025,2600.497559 51.663025,2609.738770 
	C51.662991,3418.233643 51.662998,4226.728516 51.663830,5035.223145 
	C51.663837,5041.221680 51.504959,5047.227539 51.744854,5053.216797 
	C51.896484,5057.001953 52.651897,5060.762695 53.213268,5065.131836 
	C57.462875,5065.609375 60.694118,5066.291504 63.925255,5066.291016 
	C585.809937,5066.211426 1107.694580,5066.085449 1629.579224,5065.878418 
	C1631.399658,5065.877930 1633.219604,5064.686523 1635.371216,5063.935547 
	C1638.550537,5054.830078 1637.026489,5045.428223 1637.027466,5036.239258 
	C1637.112915,4227.078125 1637.106689,3417.916748 1637.104736,2608.755371 
	C1637.104736,2602.756592 1637.361694,2596.739014 1636.959961,2590.766357 
	C1636.708984,2587.034668 1635.446167,2583.371094 1634.451172,2578.826416 
	C1131.044067,2578.826416 628.523315,2578.826416 122.004852,2578.826416 
M1679.680908,4894.000000 
	C1679.681519,4943.328613 1679.612549,4992.657715 1679.760132,5041.986328 
	C1679.781616,5049.143555 1678.225464,5056.642578 1682.544189,5063.759277 
	C1691.270386,5067.560059 1700.702393,5066.479004 1709.933472,5066.479980 
	C2218.547607,5066.528320 2727.161865,5066.524414 3235.776123,5066.507812 
	C3241.771729,5066.507812 3247.791016,5066.551758 3253.753418,5066.041016 
	C3256.908691,5065.770508 3259.964844,5064.347168 3263.176025,5063.413086 
	C3266.618408,5053.828613 3265.370361,5044.426270 3265.371338,5035.212402 
	C3265.429199,4508.600098 3265.423096,3981.987549 3265.417236,3455.375244 
	C3265.417236,3449.376465 3265.634521,3443.354980 3265.181885,3437.387207 
	C3264.897217,3433.635498 3263.550049,3429.964355 3262.421143,3425.156494 
	C3252.316162,3424.870605 3243.106445,3424.382568 3233.896973,3424.381836 
	C2725.949219,3424.345215 2218.001709,3424.349365 1710.053955,3424.354248 
	C1704.054932,3424.354248 1698.028442,3424.089355 1692.066772,3424.579590 
	C1688.334473,3424.886719 1684.699585,3426.378662 1681.359619,3427.250732 
	C1680.741211,3430.263428 1679.992188,3432.210449 1679.991577,3434.157227 
	C1679.853638,3919.438232 1679.767822,4404.719238 1679.680908,4894.000000 
M2858.000000,1732.009766 
	C2474.778076,1732.010010 2091.556152,1732.005493 1708.334106,1732.019897 
	C1680.101440,1732.020874 1680.013916,1732.083740 1680.013062,1759.110474 
	C1679.995728,2291.621826 1679.999268,2824.133301 1680.015015,3356.644775 
	C1680.015137,3361.972656 1679.916138,3367.332275 1680.434082,3372.621094 
	C1681.154053,3379.969971 1684.364868,3383.022949 1692.147461,3383.592041 
	C1698.781372,3384.077148 1705.466553,3383.938721 1712.129150,3383.939209 
	C1906.072632,3383.953857 2100.016113,3383.951172 2293.959473,3383.951172 
	C2606.534912,3383.951172 2919.110596,3383.952881 3231.686035,3383.939941 
	C3238.348633,3383.939697 3245.036133,3384.100342 3251.667969,3383.601807 
	C3260.281494,3382.954102 3263.061523,3379.922363 3263.760742,3370.833496 
	C3264.169189,3365.529053 3264.037598,3360.177734 3264.037842,3354.847656 
	C3264.047852,2823.669189 3264.031250,2292.490723 3264.088867,1761.312378 
	C3264.092041,1731.278809 3263.822266,1731.966309 3233.891602,1731.982300 
	C3109.927734,1732.048706 2985.963867,1732.009888 2858.000000,1732.009766 
z"/>
<path fill="#77F2F2" opacity="1.000000" stroke="none" 
	d="
M124.003731,2578.826416 
	C628.523315,2578.826416 1131.044067,2578.826416 1634.451172,2578.826416 
	C1635.446167,2583.371094 1636.708984,2587.034668 1636.959961,2590.766357 
	C1637.361694,2596.739014 1637.104736,2602.756592 1637.104736,2608.755371 
	C1637.106689,3417.916748 1637.112915,4227.078125 1637.027466,5036.239258 
	C1637.026489,5045.428223 1638.550537,5054.830078 1635.371216,5063.935547 
	C1633.219604,5064.686523 1631.399658,5065.877930 1629.579224,5065.878418 
	C1107.694580,5066.085449 585.809937,5066.211426 63.925255,5066.291016 
	C60.694118,5066.291504 57.462875,5065.609375 53.213268,5065.131836 
	C52.651897,5060.762695 51.896484,5057.001953 51.744854,5053.216797 
	C51.504959,5047.227539 51.663837,5041.221680 51.663830,5035.223145 
	C51.662998,4226.728516 51.662991,3418.233643 51.663025,2609.738770 
	C51.663025,2600.497559 51.663017,2591.256104 51.663017,2580.929688 
	C64.374489,2577.186768 76.324860,2579.258545 88.014465,2578.901611 
	C99.334801,2578.555908 110.673958,2578.826660 124.003731,2578.826416 
z"/>
<path fill="#2CB1BF" opacity="1.000000" stroke="none" 
	d="
M1632.069702,2535.375000 
	C1624.080322,2535.602295 1616.090820,2536.028076 1608.101440,2536.028564 
	C1098.809814,2536.059814 589.518066,2536.062256 80.226418,2536.008545 
	C71.709457,2536.007568 63.007607,2537.145508 53.600758,2533.860107 
	C52.973545,2529.940674 52.014473,2526.168945 51.839169,2522.360596 
	C51.532913,2515.707764 51.685684,2509.032471 51.685654,2502.366699 
	C51.682228,1695.099365 51.677814,887.831970 51.736095,80.564651 
	C51.736805,70.740578 50.486885,60.729267 53.786125,50.147335 
	C58.002956,49.532913 61.807713,48.673687 65.644829,48.489784 
	C71.631516,48.202858 77.640144,48.353733 83.639481,48.353695 
	C590.931335,48.350597 1098.223145,48.347061 1605.515015,48.380585 
	C1614.730957,48.381195 1623.946777,48.827061 1634.050781,49.088120 
	C1635.134033,53.890331 1636.432007,57.569847 1636.703491,61.323620 
	C1637.135498,67.294106 1636.915649,73.314087 1636.915649,79.313148 
	C1636.920410,823.918884 1636.920776,1568.524658 1636.908813,2313.130371 
	C1636.908691,2321.128174 1636.740845,2329.125977 1635.125488,2338.197510 
	C1629.893433,2333.737549 1626.130737,2328.240723 1622.489746,2322.664307 
	C1588.617676,2270.787598 1554.800537,2218.875000 1520.853027,2167.047607 
	C1517.662598,2162.176758 1515.669922,2156.074219 1508.340942,2153.449219 
	C1498.239380,2159.920410 1487.566650,2166.652832 1476.997803,2173.544678 
	C1371.530518,2242.317383 1266.067993,2311.097900 1160.658447,2379.959229 
	C1154.674072,2383.868652 1147.676514,2386.750488 1143.993164,2393.222900 
	C1152.975708,2411.674316 1172.363892,2440.796875 1183.360352,2452.148438 
	C1188.769531,2448.849365 1194.477295,2445.557861 1199.993896,2441.971924 
	C1230.714722,2422.002441 1261.388062,2401.959717 1292.079956,2381.945801 
	C1347.883667,2345.556152 1403.652954,2309.113525 1459.547363,2272.864014 
	C1465.414429,2269.059082 1470.690186,2263.354736 1479.368530,2263.637939 
	C1483.596680,2269.849121 1487.788330,2275.798828 1491.768311,2281.886719 
	C1516.920898,2320.361328 1541.985474,2358.893555 1567.205078,2397.324219 
	C1570.001587,2401.585693 1573.593628,2405.324951 1577.400513,2410.027832 
	C1584.647827,2405.421143 1590.751587,2401.476318 1596.918945,2397.634277 
	C1609.900513,2389.547607 1622.915405,2381.514404 1635.916748,2373.459473 
	C1636.244751,2378.070801 1636.858032,2382.682373 1636.856567,2387.293701 
	C1636.840576,2434.287109 1636.724487,2481.280762 1635.614746,2530.603027 
	C1633.648926,2533.639893 1632.807861,2534.454346 1632.069702,2535.375000 
M1070.297485,2238.320312 
	C1071.202881,2237.906738 1072.108154,2237.493164 1075.844116,2238.366455 
	C1083.343506,2241.013184 1090.748657,2243.981934 1098.369751,2246.212646 
	C1105.354248,2248.256592 1112.594849,2249.410156 1119.680786,2251.128418 
	C1127.131470,2252.934814 1135.578369,2250.748047 1142.294556,2255.901611 
	C1142.173950,2273.888428 1131.994751,2289.028320 1131.092407,2306.060303 
	C1152.922363,2309.928711 1188.639404,2311.736328 1204.174683,2309.628906 
	C1216.558228,2260.686768 1219.959229,2210.878418 1214.045166,2159.088379 
	C1214.833618,2158.182617 1215.519409,2157.204834 1219.019043,2156.434570 
	C1259.826294,2173.848145 1302.304810,2182.182129 1346.187500,2181.380127 
	C1347.889282,2178.355957 1349.420166,2176.750488 1349.713989,2174.943604 
	C1353.122070,2153.982178 1356.343262,2132.990234 1359.625488,2109.881348 
	C1358.416748,2109.381348 1357.208130,2108.881592 1352.269165,2108.303223 
	C1319.865601,2110.792725 1288.544189,2106.939209 1258.435669,2093.842041 
	C1217.214600,2075.910889 1186.006348,2047.074463 1163.341187,2008.611206 
	C1161.419800,2005.350586 1160.244995,2001.649902 1158.507080,1997.656616 
	C1178.162598,1981.648804 1200.814331,1971.252441 1220.416870,1954.548828 
	C1209.818604,1938.218018 1199.828491,1922.594604 1189.542114,1907.168701 
	C1187.502808,1904.110474 1184.326660,1901.810181 1181.929321,1899.414673 
	C1158.849121,1911.864868 858.171143,2108.601318 846.636597,2118.673340 
	C853.131958,2134.360840 872.970276,2164.284668 883.864197,2174.618408 
	C906.097107,2163.427002 924.967163,2146.098633 949.115784,2135.207275 
	C956.418213,2146.665283 963.628723,2156.997559 969.834106,2167.901855 
	C987.660217,2199.225586 996.860657,2232.831055 996.372925,2269.113770 
	C996.046570,2293.386963 991.337463,2316.723633 984.043152,2339.700928 
	C982.077332,2345.893066 980.364197,2352.165283 978.534912,2358.401611 
	C981.084534,2360.076904 982.629700,2361.928467 984.327698,2362.081543 
	C1006.184692,2364.047363 1028.061157,2365.800781 1049.943359,2367.467773 
	C1051.049683,2367.552002 1052.253174,2366.359375 1054.319824,2365.291992 
	C1066.600952,2324.702637 1070.937866,2282.645020 1070.297485,2238.320312 
M1433.356445,2168.086182 
	C1450.660034,2156.809082 1468.029175,2145.630127 1485.206543,2134.164307 
	C1488.287109,2132.108154 1490.575562,2128.865479 1493.691895,2125.701660 
	C1484.913818,2112.082520 1476.658081,2099.215820 1468.342163,2086.388184 
	C1459.643799,2072.970947 1450.729492,2059.691162 1442.201782,2046.166992 
	C1434.083374,2033.291748 1424.410767,2021.326294 1418.041016,2006.726685 
	C1428.994263,1995.190552 1443.193359,1988.944580 1455.466797,1980.073608 
	C1467.779907,1971.173950 1481.924194,1964.805664 1492.662842,1953.972046 
	C1485.286743,1937.191895 1464.910034,1906.411743 1453.465820,1894.960449 
	C1448.643799,1897.753784 1443.439941,1900.498535 1438.512085,1903.671997 
	C1421.708374,1914.493774 1405.047119,1925.537109 1388.222778,1936.326294 
	C1384.508301,1938.708130 1380.347412,1940.393799 1375.529419,1942.837646 
	C1371.043823,1936.422241 1367.134644,1931.136475 1363.542358,1925.643555 
	C1339.474731,1888.842285 1315.512329,1851.972046 1291.401978,1815.198730 
	C1288.588745,1810.907837 1285.079590,1807.073364 1282.078979,1803.263306 
	C1263.426025,1811.966431 1222.050293,1839.421265 1210.997559,1850.411987 
	C1212.621826,1853.612549 1214.135010,1857.226196 1216.171875,1860.515625 
	C1266.339233,1941.527344 1408.917847,2157.853760 1422.360596,2173.189941 
	C1424.964600,2172.114990 1427.893188,2170.906006 1433.356445,2168.086182 
z"/>
<path fill="#2CB1BF" opacity="1.000000" stroke="none" 
	d="
M1679.680786,4892.000000 
	C1679.767822,4404.719238 1679.853638,3919.438232 1679.991577,3434.157227 
	C1679.992188,3432.210449 1680.741211,3430.263428 1681.359619,3427.250732 
	C1684.699585,3426.378662 1688.334473,3424.886719 1692.066772,3424.579590 
	C1698.028442,3424.089355 1704.054932,3424.354248 1710.053955,3424.354248 
	C2218.001709,3424.349365 2725.949219,3424.345215 3233.896973,3424.381836 
	C3243.106445,3424.382568 3252.316162,3424.870605 3262.421143,3425.156494 
	C3263.550049,3429.964355 3264.897217,3433.635498 3265.181885,3437.387207 
	C3265.634521,3443.354980 3265.417236,3449.376465 3265.417236,3455.375244 
	C3265.423096,3981.987549 3265.429199,4508.600098 3265.371338,5035.212402 
	C3265.370361,5044.426270 3266.618408,5053.828613 3263.176025,5063.413086 
	C3259.964844,5064.347168 3256.908691,5065.770508 3253.753418,5066.041016 
	C3247.791016,5066.551758 3241.771729,5066.507812 3235.776123,5066.507812 
	C2727.161865,5066.524414 2218.547607,5066.528320 1709.933472,5066.479980 
	C1700.702393,5066.479004 1691.270386,5067.560059 1682.544189,5063.759277 
	C1678.225464,5056.642578 1679.781616,5049.143555 1679.760132,5041.986328 
	C1679.612549,4992.657715 1679.681519,4943.328613 1679.680786,4892.000000 
z"/>
<path fill="#C4DDF2" opacity="1.000000" stroke="none" 
	d="
M1680.460571,1684.013306 
	C1680.194580,1676.700073 1679.696045,1669.386841 1679.695557,1662.073608 
	C1679.659302,1132.801392 1679.660278,603.529175 1679.682861,74.256920 
	C1679.683228,66.399269 1679.991821,58.541637 1680.127441,52.070103 
	C1682.099976,50.314709 1682.545288,49.780373 1683.110840,49.454491 
	C1683.656860,49.139759 1684.326538,48.869747 1684.941895,48.869560 
	C2208.871338,48.710896 2732.800537,48.575432 3256.729980,48.487263 
	C3258.636475,48.486942 3260.542725,49.171688 3263.864502,49.807266 
	C3264.482178,53.312637 3265.500244,56.996704 3265.704590,60.725353 
	C3266.032471,66.707542 3265.836670,72.719223 3265.836670,78.718422 
	C3265.839111,605.324280 3265.838379,1131.930176 3265.838379,1658.536011 
	C3265.838379,1667.796997 3265.838623,1677.057983 3265.838623,1687.144165 
	C3260.936523,1688.113159 3257.241455,1689.229492 3253.486084,1689.493652 
	C3248.178711,1689.866821 3242.827148,1689.621338 3237.494385,1689.621338 
	C2728.219727,1689.623169 2218.945312,1689.624146 1709.670776,1689.611450 
	C1702.340332,1689.611206 1695.009888,1689.437500 1685.379639,1688.062500 
	C1682.331299,1685.739990 1681.458252,1684.817749 1680.460571,1684.013306 
z"/>
<path fill="#244867" opacity="1.000000" stroke="none" 
	d="
M2860.000000,1732.009766 
	C2985.963867,1732.009888 3109.927734,1732.048706 3233.891602,1731.982300 
	C3263.822266,1731.966309 3264.092041,1731.278809 3264.088867,1761.312378 
	C3264.031250,2292.490723 3264.047852,2823.669189 3264.037842,3354.847656 
	C3264.037598,3360.177734 3264.169189,3365.529053 3263.760742,3370.833496 
	C3263.061523,3379.922363 3260.281494,3382.954102 3251.667969,3383.601807 
	C3245.036133,3384.100342 3238.348633,3383.939697 3231.686035,3383.939941 
	C2919.110596,3383.952881 2606.534912,3383.951172 2293.959473,3383.951172 
	C2100.016113,3383.951172 1906.072632,3383.953857 1712.129150,3383.939209 
	C1705.466553,3383.938721 1698.781372,3384.077148 1692.147461,3383.592041 
	C1684.364868,3383.022949 1681.154053,3379.969971 1680.434082,3372.621094 
	C1679.916138,3367.332275 1680.015137,3361.972656 1680.015015,3356.644775 
	C1679.999268,2824.133301 1679.995728,2291.621826 1680.013062,1759.110474 
	C1680.013916,1732.083740 1680.101440,1732.020874 1708.334106,1732.019897 
	C2091.556152,1732.005493 2474.778076,1732.010010 2860.000000,1732.009766 
M2318.389893,2216.531250 
	C2373.527588,2145.452881 2410.426270,2092.874268 2419.197021,2072.674072 
	C2417.313965,2071.118164 2415.438232,2069.246094 2413.268311,2067.822510 
	C2355.345459,2029.813477 2297.405518,1991.830444 2239.399658,1953.948242 
	C2236.840820,1952.277100 2233.632812,1951.599731 2230.046143,1950.192139 
	C2223.309570,1960.353271 2216.863037,1969.617432 2210.907227,1979.186768 
	C2204.726807,1989.117065 2196.668457,1998.041748 2192.405029,2009.947388 
	C2202.788086,2016.794434 2212.202393,2023.011353 2221.625977,2029.213989 
	C2231.085693,2035.440674 2240.548828,2041.662720 2250.021729,2047.869141 
	C2260.052002,2054.440918 2270.208740,2060.826660 2280.100342,2067.599854 
	C2289.205566,2073.834473 2299.316162,2078.810791 2307.055176,2086.474854 
	C2289.198486,2118.811279 2232.191895,2194.740479 2215.517578,2208.602295 
	C2213.859375,2207.952637 2211.856689,2207.537109 2210.268066,2206.491943 
	C2165.204590,2176.841309 2120.181152,2147.129883 2075.173584,2117.394043 
	C2074.677734,2117.066406 2074.428467,2116.313477 2074.153564,2115.717529 
	C2073.892822,2115.152344 2073.750000,2114.532715 2073.546143,2113.931641 
	C2074.225342,2112.788086 2074.755371,2111.515625 2075.610352,2110.523682 
	C2079.086426,2106.490479 2082.636230,2102.519775 2086.205566,2098.568115 
	C2129.161865,2051.007568 2168.933594,2001.003784 2202.714111,1946.423462 
	C2205.009033,1942.715454 2206.565918,1938.550415 2208.375732,1934.786255 
	C2206.425049,1932.981689 2205.566650,1931.932495 2204.485352,1931.223389 
	C2143.208740,1891.041260 2081.921631,1850.875000 2020.583740,1810.786377 
	C2018.577759,1809.475220 2016.035645,1808.984253 2014.053833,1808.229370 
	C1996.247681,1831.029297 1981.582031,1854.568970 1976.551514,1868.698608 
	C1996.292480,1881.637207 2016.403076,1894.571411 2036.251221,1907.896484 
	C2055.982666,1921.143433 2076.701660,1933.006714 2095.156250,1947.811401 
	C2075.564453,1984.492554 2020.807617,2051.082764 1997.226685,2067.007568 
	C1966.769897,2047.104370 1936.102661,2027.074341 1905.447144,2007.026489 
	C1887.605591,1995.358521 1869.765259,1983.688477 1851.963745,1971.959961 
	C1847.405884,1968.957031 1842.876709,1966.320557 1837.288818,1968.953247 
	C1831.126465,1978.482910 1824.779785,1987.828125 1818.931396,1997.475464 
	C1813.226685,2006.886353 1805.209961,2015.091919 1801.908203,2026.556396 
	C1808.822144,2031.276855 1814.768311,2035.479736 1820.854126,2039.469604 
	C1883.249756,2080.375732 1945.685669,2121.220947 2008.048218,2162.177490 
	C2013.370483,2165.672852 2019.905151,2167.999268 2022.912109,2174.832275 
	C2016.211548,2185.203125 2009.933716,2195.413818 2003.152832,2205.278809 
	C1996.096802,2215.543945 1990.591797,2226.997070 1981.326660,2236.222412 
	C1974.590332,2233.001465 1968.742920,2229.841797 1962.623901,2227.348145 
	C1944.766724,2220.071533 1927.145508,2211.964600 1908.797485,2206.202393 
	C1881.239258,2197.547852 1853.021729,2194.080811 1824.027222,2199.661377 
	C1773.152222,2209.453369 1732.819702,2256.697021 1731.601440,2308.406006 
	C1731.085815,2330.292725 1736.773315,2350.565430 1746.101318,2370.023682 
	C1756.880127,2392.507812 1772.023926,2411.867188 1789.411499,2429.552002 
	C1822.876831,2463.589355 1861.790161,2490.310059 1903.211670,2513.530518 
	C1932.983276,2530.219971 1964.146240,2543.610596 1997.930908,2549.859131 
	C2023.073486,2554.509033 2048.200684,2554.985596 2073.215576,2548.449951 
	C2133.085693,2532.808594 2162.294922,2469.641846 2153.376465,2424.126221 
	C2148.121338,2397.306396 2137.329834,2373.508301 2121.445068,2351.704590 
	C2106.057861,2330.584229 2087.811768,2312.150391 2067.869385,2295.330811 
	C2063.924072,2292.003174 2060.299072,2288.295898 2056.016357,2284.286133 
	C2069.551025,2262.731445 2082.737793,2242.128662 2097.539062,2221.174316 
	C2104.659424,2225.634033 2110.857178,2229.369629 2116.909180,2233.327881 
	C2179.906006,2274.532227 2242.869141,2315.788330 2305.879150,2356.972656 
	C2310.748535,2360.155273 2315.899658,2362.906250 2321.795410,2366.372559 
	C2335.781494,2346.272217 2348.345947,2326.834473 2360.843262,2307.072266 
	C2353.138184,2298.808594 2343.962646,2294.555908 2335.852783,2288.897949 
	C2328.207275,2283.563965 2320.192871,2278.759766 2312.510742,2273.475830 
	C2304.482422,2267.953857 2295.439941,2263.690918 2287.987793,2255.738281 
	C2297.961670,2242.842529 2307.273682,2230.802490 2318.389893,2216.531250 
z"/>
<path fill="#ECF3F6" opacity="1.000000" stroke="none" 
	d="
M1636.725952,2372.627441 
	C1622.915405,2381.514404 1609.900513,2389.547607 1596.918945,2397.634277 
	C1590.751587,2401.476318 1584.647827,2405.421143 1577.400513,2410.027832 
	C1573.593628,2405.324951 1570.001587,2401.585693 1567.205078,2397.324219 
	C1541.985474,2358.893555 1516.920898,2320.361328 1491.768311,2281.886719 
	C1487.788330,2275.798828 1483.596680,2269.849121 1479.368530,2263.637939 
	C1470.690186,2263.354736 1465.414429,2269.059082 1459.547363,2272.864014 
	C1403.652954,2309.113525 1347.883667,2345.556152 1292.079956,2381.945801 
	C1261.388062,2401.959717 1230.714722,2422.002441 1199.993896,2441.971924 
	C1194.477295,2445.557861 1188.769531,2448.849365 1183.360352,2452.148438 
	C1172.363892,2440.796875 1152.975708,2411.674316 1143.993164,2393.222900 
	C1147.676514,2386.750488 1154.674072,2383.868652 1160.658447,2379.959229 
	C1266.067993,2311.097900 1371.530518,2242.317383 1476.997803,2173.544678 
	C1487.566650,2166.652832 1498.239380,2159.920410 1508.340942,2153.449219 
	C1515.669922,2156.074219 1517.662598,2162.176758 1520.853027,2167.047607 
	C1554.800537,2218.875000 1588.617676,2270.787598 1622.489746,2322.664307 
	C1626.130737,2328.240723 1629.893433,2333.737549 1634.746338,2340.099609 
	C1639.703979,2348.107910 1643.514771,2355.287842 1647.631592,2363.044189 
	C1644.090698,2366.113281 1640.812988,2368.954346 1636.725952,2372.627441 
z"/>
<path fill="#29A3B3" opacity="1.000000" stroke="none" 
	d="
M1633.060547,2535.281250 
	C1632.807861,2534.454346 1633.648926,2533.639893 1635.337402,2532.460449 
	C1636.096191,2533.494141 1635.419312,2534.560303 1633.060547,2535.281250 
z"/>
<path fill="#B9D3E9" opacity="1.000000" stroke="none" 
	d="
M1680.331177,1685.215698 
	C1681.458252,1684.817749 1682.331299,1685.739990 1683.553711,1687.609131 
	C1682.752197,1687.764771 1681.476929,1687.091431 1680.331177,1685.215698 
z"/>
<path fill="#EDF3F6" opacity="1.000000" stroke="none" 
	d="
M1359.614014,2112.006592 
	C1356.343262,2132.990234 1353.122070,2153.982178 1349.713989,2174.943604 
	C1349.420166,2176.750488 1347.889282,2178.355957 1346.187500,2181.380127 
	C1302.304810,2182.182129 1259.826294,2173.848145 1216.491699,2156.478760 
	C1213.571899,2157.804199 1213.179565,2159.085693 1212.787231,2160.366943 
	C1219.959229,2210.878418 1216.558228,2260.686768 1204.174683,2309.628906 
	C1188.639404,2311.736328 1152.922363,2309.928711 1131.092407,2306.060303 
	C1131.994751,2289.028320 1142.173950,2273.888428 1142.294556,2255.901611 
	C1135.578369,2250.748047 1127.131470,2252.934814 1119.680786,2251.128418 
	C1112.594849,2249.410156 1105.354248,2248.256592 1098.369751,2246.212646 
	C1090.748657,2243.981934 1083.343506,2241.013184 1073.540283,2237.247314 
	C1070.045654,2237.327637 1068.854736,2238.527100 1067.663818,2239.726807 
	C1070.937866,2282.645020 1066.600952,2324.702637 1054.319824,2365.291992 
	C1052.253174,2366.359375 1051.049683,2367.552002 1049.943359,2367.467773 
	C1028.061157,2365.800781 1006.184692,2364.047363 984.327698,2362.081543 
	C982.629700,2361.928467 981.084534,2360.076904 978.534912,2358.401611 
	C980.364197,2352.165283 982.077332,2345.893066 984.043152,2339.700928 
	C991.337463,2316.723633 996.046570,2293.386963 996.372925,2269.113770 
	C996.860657,2232.831055 987.660217,2199.225586 969.834106,2167.901855 
	C963.628723,2156.997559 956.418213,2146.665283 949.115784,2135.207275 
	C924.967163,2146.098633 906.097107,2163.427002 883.864197,2174.618408 
	C872.970276,2164.284668 853.131958,2134.360840 846.636597,2118.673340 
	C858.171143,2108.601318 1158.849121,1911.864868 1181.929321,1899.414673 
	C1184.326660,1901.810181 1187.502808,1904.110474 1189.542114,1907.168701 
	C1199.828491,1922.594604 1209.818604,1938.218018 1220.416870,1954.548828 
	C1200.814331,1971.252441 1178.162598,1981.648804 1158.507080,1997.656616 
	C1160.244995,2001.649902 1161.419800,2005.350586 1163.341187,2008.611206 
	C1186.006348,2047.074463 1217.214600,2075.910889 1258.435669,2093.842041 
	C1288.544189,2106.939209 1319.865601,2110.792725 1354.649658,2109.028809 
	C1357.786987,2110.625000 1358.648315,2111.375732 1359.614014,2112.006592 
M1046.740845,2135.205322 
	C1070.184204,2161.511963 1099.687500,2176.771484 1134.109863,2182.942627 
	C1138.516968,2183.732422 1143.346069,2185.264648 1146.853149,2180.588135 
	C1145.458984,2139.681396 1116.518066,2073.457031 1087.562622,2044.887817 
	C1067.944458,2053.862305 1026.745239,2081.464600 1016.968018,2092.478760 
	C1025.449463,2106.350342 1034.146118,2120.381348 1046.740845,2135.205322 
z"/>
<path fill="#ECF3F6" opacity="1.000000" stroke="none" 
	d="
M1432.089111,2168.891602 
	C1427.893188,2170.906006 1424.964600,2172.114990 1422.360596,2173.189941 
	C1408.917847,2157.853760 1266.339233,1941.527344 1216.171875,1860.515625 
	C1214.135010,1857.226196 1212.621826,1853.612549 1210.997559,1850.411987 
	C1222.050293,1839.421265 1263.426025,1811.966431 1282.078979,1803.263306 
	C1285.079590,1807.073364 1288.588745,1810.907837 1291.401978,1815.198730 
	C1315.512329,1851.972046 1339.474731,1888.842285 1363.542358,1925.643555 
	C1367.134644,1931.136475 1371.043823,1936.422241 1375.529419,1942.837646 
	C1380.347412,1940.393799 1384.508301,1938.708130 1388.222778,1936.326294 
	C1405.047119,1925.537109 1421.708374,1914.493774 1438.512085,1903.671997 
	C1443.439941,1900.498535 1448.643799,1897.753784 1453.465820,1894.960449 
	C1464.910034,1906.411743 1485.286743,1937.191895 1492.662842,1953.972046 
	C1481.924194,1964.805664 1467.779907,1971.173950 1455.466797,1980.073608 
	C1443.193359,1988.944580 1428.994263,1995.190552 1418.041016,2006.726685 
	C1424.410767,2021.326294 1434.083374,2033.291748 1442.201782,2046.166992 
	C1450.729492,2059.691162 1459.643799,2072.970947 1468.342163,2086.388184 
	C1476.658081,2099.215820 1484.913818,2112.082520 1493.691895,2125.701660 
	C1490.575562,2128.865479 1488.287109,2132.108154 1485.206543,2134.164307 
	C1468.029175,2145.630127 1450.660034,2156.809082 1432.089111,2168.891602 
z"/>
<path fill="#B9D3E9" opacity="1.000000" stroke="none" 
	d="
M1359.619751,2110.943848 
	C1358.648315,2111.375732 1357.786987,2110.625000 1356.514771,2109.068115 
	C1357.208130,2108.881592 1358.416748,2109.381348 1359.619751,2110.943848 
z"/>
<path fill="#80CDD7" opacity="1.000000" stroke="none" 
	d="
M1213.416260,2159.727539 
	C1213.179565,2159.085693 1213.571899,2157.804199 1215.033447,2156.338867 
	C1215.519409,2157.204834 1214.833618,2158.182617 1213.416260,2159.727539 
z"/>
<path fill="#80CDD7" opacity="1.000000" stroke="none" 
	d="
M1068.980713,2239.023438 
	C1068.854736,2238.527100 1070.045654,2237.327637 1072.125000,2236.604004 
	C1072.108154,2237.493164 1071.202881,2237.906738 1068.980713,2239.023438 
z"/>
<path fill="#EDF1F5" opacity="1.000000" stroke="none" 
	d="
M2317.487793,2217.646973 
	C2307.273682,2230.802490 2297.961670,2242.842529 2287.987793,2255.738281 
	C2295.439941,2263.690918 2304.482422,2267.953857 2312.510742,2273.475830 
	C2320.192871,2278.759766 2328.207275,2283.563965 2335.852783,2288.897949 
	C2343.962646,2294.555908 2353.138184,2298.808594 2360.843262,2307.072266 
	C2348.345947,2326.834473 2335.781494,2346.272217 2321.795410,2366.372559 
	C2315.899658,2362.906250 2310.748535,2360.155273 2305.879150,2356.972656 
	C2242.869141,2315.788330 2179.906006,2274.532227 2116.909180,2233.327881 
	C2110.857178,2229.369629 2104.659424,2225.634033 2097.539062,2221.174316 
	C2082.737793,2242.128662 2069.551025,2262.731445 2056.016357,2284.286133 
	C2060.299072,2288.295898 2063.924072,2292.003174 2067.869385,2295.330811 
	C2087.811768,2312.150391 2106.057861,2330.584229 2121.445068,2351.704590 
	C2137.329834,2373.508301 2148.121338,2397.306396 2153.376465,2424.126221 
	C2162.294922,2469.641846 2133.085693,2532.808594 2073.215576,2548.449951 
	C2048.200684,2554.985596 2023.073486,2554.509033 1997.930908,2549.859131 
	C1964.146240,2543.610596 1932.983276,2530.219971 1903.211670,2513.530518 
	C1861.790161,2490.310059 1822.876831,2463.589355 1789.411499,2429.552002 
	C1772.023926,2411.867188 1756.880127,2392.507812 1746.101318,2370.023682 
	C1736.773315,2350.565430 1731.085815,2330.292725 1731.601440,2308.406006 
	C1732.819702,2256.697021 1773.152222,2209.453369 1824.027222,2199.661377 
	C1853.021729,2194.080811 1881.239258,2197.547852 1908.797485,2206.202393 
	C1927.145508,2211.964600 1944.766724,2220.071533 1962.623901,2227.348145 
	C1968.742920,2229.841797 1974.590332,2233.001465 1981.326660,2236.222412 
	C1990.591797,2226.997070 1996.096802,2215.543945 2003.152832,2205.278809 
	C2009.933716,2195.413818 2016.211548,2185.203125 2022.912109,2174.832275 
	C2019.905151,2167.999268 2013.370483,2165.672852 2008.048218,2162.177490 
	C1945.685669,2121.220947 1883.249756,2080.375732 1820.854126,2039.469604 
	C1814.768311,2035.479736 1808.822144,2031.276855 1801.908203,2026.556396 
	C1805.209961,2015.091919 1813.226685,2006.886353 1818.931396,1997.475464 
	C1824.779785,1987.828125 1831.126465,1978.482910 1837.288818,1968.953247 
	C1842.876709,1966.320557 1847.405884,1968.957031 1851.963745,1971.959961 
	C1869.765259,1983.688477 1887.605591,1995.358521 1905.447144,2007.026489 
	C1936.102661,2027.074341 1966.769897,2047.104370 1997.226685,2067.007568 
	C2020.807617,2051.082764 2075.564453,1984.492554 2095.156250,1947.811401 
	C2076.701660,1933.006714 2055.982666,1921.143433 2036.251221,1907.896484 
	C2016.403076,1894.571411 1996.292480,1881.637207 1976.551514,1868.698608 
	C1981.582031,1854.568970 1996.247681,1831.029297 2014.053833,1808.229370 
	C2016.035645,1808.984253 2018.577759,1809.475220 2020.583740,1810.786377 
	C2081.921631,1850.875000 2143.208740,1891.041260 2204.485352,1931.223389 
	C2205.566650,1931.932495 2206.425049,1932.981689 2208.375732,1934.786255 
	C2206.565918,1938.550415 2205.009033,1942.715454 2202.714111,1946.423462 
	C2168.933594,2001.003784 2129.161865,2051.007568 2086.205566,2098.568115 
	C2082.636230,2102.519775 2079.086426,2106.490479 2075.610352,2110.523682 
	C2074.755371,2111.515625 2074.225342,2112.788086 2073.550781,2113.934326 
	C2073.750000,2114.532715 2073.892822,2115.152344 2074.153564,2115.717529 
	C2074.428467,2116.313477 2074.677734,2117.066406 2075.173584,2117.394043 
	C2120.181152,2147.129883 2165.204590,2176.841309 2210.268066,2206.491943 
	C2211.856689,2207.537109 2213.859375,2207.952637 2215.517578,2208.602295 
	C2232.191895,2194.740479 2289.198486,2118.811279 2307.055176,2086.474854 
	C2299.316162,2078.810791 2289.205566,2073.834473 2280.100342,2067.599854 
	C2270.208740,2060.826660 2260.052002,2054.440918 2250.021729,2047.869141 
	C2240.548828,2041.662720 2231.085693,2035.440674 2221.625977,2029.213989 
	C2212.202393,2023.011353 2202.788086,2016.794434 2192.405029,2009.947388 
	C2196.668457,1998.041748 2204.726807,1989.117065 2210.907227,1979.186768 
	C2216.863037,1969.617432 2223.309570,1960.353271 2230.046143,1950.192139 
	C2233.632812,1951.599731 2236.840820,1952.277100 2239.399658,1953.948242 
	C2297.405518,1991.830444 2355.345459,2029.813477 2413.268311,2067.822510 
	C2415.438232,2069.246094 2417.313965,2071.118164 2419.197021,2072.674072 
	C2410.426270,2092.874268 2373.527588,2145.452881 2317.487793,2217.646973 
M2052.277588,2462.537109 
	C2071.967285,2443.571289 2072.592773,2421.743408 2061.338135,2398.546387 
	C2057.878418,2391.415283 2053.730957,2384.321777 2048.551758,2378.386230 
	C2039.385864,2367.882324 2029.845947,2357.511719 2019.288940,2348.452881 
	C1994.933350,2327.553955 1967.993530,2310.328613 1939.388794,2295.765381 
	C1922.681519,2287.259521 1905.311890,2280.304932 1886.614868,2278.068115 
	C1877.495605,2276.977051 1867.894165,2276.841553 1858.893799,2278.435059 
	C1835.840942,2282.516357 1821.240234,2298.570801 1817.867432,2321.488525 
	C1816.352417,2331.783691 1819.068481,2341.283203 1822.963379,2350.596436 
	C1828.189697,2363.093994 1836.197754,2373.770264 1845.657959,2383.222900 
	C1881.939575,2419.475830 1924.081177,2447.055908 1971.583374,2466.227295 
	C1981.366821,2470.176025 1991.992065,2472.403809 2002.435913,2474.268799 
	C2019.397217,2477.298096 2035.639160,2475.136230 2052.277588,2462.537109 
z"/>
<path fill="#32B3C1" opacity="1.000000" stroke="none" 
	d="
M1045.807495,2134.138672 
	C1034.146118,2120.381348 1025.449463,2106.350342 1016.968018,2092.478760 
	C1026.745239,2081.464600 1067.944458,2053.862305 1087.562622,2044.887817 
	C1116.518066,2073.457031 1145.458984,2139.681396 1146.853149,2180.588135 
	C1143.346069,2185.264648 1138.516968,2183.732422 1134.109863,2182.942627 
	C1099.687500,2176.771484 1070.184204,2161.511963 1045.807495,2134.138672 
z"/>
<path fill="#264A68" opacity="1.000000" stroke="none" 
	d="
M2051.104492,2463.486816 
	C2035.639160,2475.136230 2019.397217,2477.298096 2002.435913,2474.268799 
	C1991.992065,2472.403809 1981.366821,2470.176025 1971.583374,2466.227295 
	C1924.081177,2447.055908 1881.939575,2419.475830 1845.657959,2383.222900 
	C1836.197754,2373.770264 1828.189697,2363.093994 1822.963379,2350.596436 
	C1819.068481,2341.283203 1816.352417,2331.783691 1817.867432,2321.488525 
	C1821.240234,2298.570801 1835.840942,2282.516357 1858.893799,2278.435059 
	C1867.894165,2276.841553 1877.495605,2276.977051 1886.614868,2278.068115 
	C1905.311890,2280.304932 1922.681519,2287.259521 1939.388794,2295.765381 
	C1967.993530,2310.328613 1994.933350,2327.553955 2019.288940,2348.452881 
	C2029.845947,2357.511719 2039.385864,2367.882324 2048.551758,2378.386230 
	C2053.730957,2384.321777 2057.878418,2391.415283 2061.338135,2398.546387 
	C2072.592773,2421.743408 2071.967285,2443.571289 2051.104492,2463.486816 
z"/>
</svg>